<svg width="290" height="96" viewBox="0 0 290 96" fill="none" xmlns="http://www.w3.org/2000/svg">
<g clip-path="url(#clip0_4795_6912)">
<g clip-path="url(#clip1_4795_6912)">
<path d="M127.737 41.512C127.737 42.4878 127.842 43.2791 128.026 43.8593C128.237 44.4395 128.5 45.0725 128.868 45.7582C129 45.9692 129.053 46.1802 129.053 46.3648C129.053 46.6285 128.895 46.8922 128.553 47.156L126.895 48.2637C126.658 48.4219 126.421 48.501 126.211 48.501C125.947 48.501 125.684 48.3692 125.421 48.1318C125.053 47.7362 124.737 47.3142 124.474 46.8922C124.211 46.4439 123.947 45.9428 123.658 45.3362C121.605 47.7626 119.026 48.9758 115.921 48.9758C113.711 48.9758 111.947 48.3428 110.658 47.0769C109.368 45.8109 108.711 44.123 108.711 42.0131C108.711 39.7714 109.5 37.9516 111.105 36.5802C112.711 35.2087 114.842 34.523 117.553 34.523C118.447 34.523 119.368 34.6021 120.342 34.734C121.316 34.8659 122.316 35.0769 123.368 35.3142V33.3889C123.368 31.3845 122.947 29.9867 122.132 29.1692C121.29 28.3516 119.868 27.956 117.842 27.956C116.921 27.956 115.974 28.0615 115 28.2988C114.026 28.5362 113.079 28.8263 112.158 29.1955C111.737 29.3801 111.421 29.4856 111.237 29.5384C111.053 29.5911 110.921 29.6175 110.816 29.6175C110.447 29.6175 110.263 29.3538 110.263 28.7999V27.5076C110.263 27.0856 110.316 26.7692 110.447 26.5845C110.579 26.3999 110.816 26.2153 111.184 26.0307C112.105 25.556 113.211 25.1604 114.5 24.8439C115.79 24.501 117.158 24.3428 118.605 24.3428C121.737 24.3428 124.026 25.0549 125.5 26.479C126.947 27.9032 127.684 30.0659 127.684 32.967V41.512H127.737ZM117.053 45.5208C117.921 45.5208 118.816 45.3626 119.763 45.0461C120.711 44.7296 121.553 44.1494 122.263 43.3582C122.684 42.8571 123 42.3032 123.158 41.6703C123.316 41.0373 123.421 40.2725 123.421 39.3758V38.2681C122.658 38.0834 121.842 37.9252 121 37.8197C120.158 37.7142 119.342 37.6615 118.526 37.6615C116.763 37.6615 115.474 38.0043 114.605 38.7164C113.737 39.4285 113.316 40.4307 113.316 41.7494C113.316 42.9889 113.632 43.912 114.29 44.545C114.921 45.2043 115.842 45.5208 117.053 45.5208ZM138.184 48.3692C137.711 48.3692 137.395 48.29 137.184 48.1054C136.974 47.9472 136.79 47.578 136.632 47.0769L130.447 26.69C130.29 26.1626 130.211 25.8197 130.211 25.6351C130.211 25.2131 130.421 24.9758 130.842 24.9758H133.421C133.921 24.9758 134.263 25.0549 134.447 25.2395C134.658 25.3977 134.816 25.767 134.974 26.2681L139.395 43.7274L143.5 26.2681C143.632 25.7406 143.79 25.3977 144 25.2395C144.211 25.0812 144.579 24.9758 145.053 24.9758H147.158C147.658 24.9758 148 25.0549 148.211 25.2395C148.421 25.3977 148.605 25.767 148.711 26.2681L152.868 43.9384L157.421 26.2681C157.579 25.7406 157.763 25.3977 157.947 25.2395C158.158 25.0812 158.5 24.9758 158.974 24.9758H161.421C161.842 24.9758 162.079 25.1867 162.079 25.6351C162.079 25.767 162.053 25.8988 162.026 26.0571C162 26.2153 161.947 26.4263 161.842 26.7164L155.5 47.1032C155.342 47.6307 155.158 47.9736 154.947 48.1318C154.737 48.29 154.395 48.3955 153.947 48.3955H151.684C151.184 48.3955 150.842 48.3164 150.632 48.1318C150.421 47.9472 150.237 47.6043 150.132 47.0769L146.053 30.0659L142 47.0505C141.868 47.578 141.711 47.9208 141.5 48.1054C141.29 48.29 140.921 48.3692 140.447 48.3692H138.184ZM172 49.0812C170.632 49.0812 169.263 48.923 167.947 48.6065C166.632 48.29 165.605 47.9472 164.921 47.5516C164.5 47.3142 164.211 47.0505 164.105 46.8131C164 46.5758 163.947 46.312 163.947 46.0747V44.7296C163.947 44.1758 164.158 43.912 164.553 43.912C164.711 43.912 164.868 43.9384 165.026 43.9911C165.184 44.0439 165.421 44.1494 165.684 44.2549C166.579 44.6505 167.553 44.967 168.579 45.178C169.632 45.3889 170.658 45.4944 171.711 45.4944C173.368 45.4944 174.658 45.2043 175.553 44.6241C176.447 44.0439 176.921 43.1999 176.921 42.1186C176.921 41.3801 176.684 40.7736 176.211 40.2725C175.737 39.7714 174.842 39.323 173.553 38.901L169.737 37.7142C167.816 37.1076 166.395 36.2109 165.526 35.0241C164.658 33.8637 164.211 32.5714 164.211 31.1999C164.211 30.0922 164.447 29.1164 164.921 28.2725C165.395 27.4285 166.026 26.69 166.816 26.1098C167.605 25.5032 168.5 25.0549 169.553 24.7384C170.605 24.4219 171.711 24.29 172.868 24.29C173.447 24.29 174.053 24.3164 174.632 24.3955C175.237 24.4747 175.79 24.5801 176.342 24.6856C176.868 24.8175 177.368 24.9494 177.842 25.1076C178.316 25.2659 178.684 25.4241 178.947 25.5823C179.316 25.7933 179.579 26.0043 179.737 26.2417C179.895 26.4527 179.974 26.7428 179.974 27.112V28.3516C179.974 28.9054 179.763 29.1955 179.368 29.1955C179.158 29.1955 178.816 29.09 178.368 28.8791C176.868 28.1933 175.184 27.8505 173.316 27.8505C171.816 27.8505 170.632 28.0878 169.816 28.5889C169 29.09 168.579 29.8549 168.579 30.9362C168.579 31.6747 168.842 32.3076 169.368 32.8087C169.895 33.3098 170.868 33.8109 172.263 34.2593L176 35.4461C177.895 36.0527 179.263 36.8966 180.079 37.978C180.895 39.0593 181.29 40.2988 181.29 41.6703C181.29 42.8043 181.053 43.8329 180.605 44.7296C180.132 45.6263 179.5 46.4175 178.684 47.0505C177.868 47.7098 176.895 48.1845 175.763 48.5274C174.579 48.8966 173.342 49.0812 172 49.0812Z" fill="black"/>
<path fill-rule="evenodd" clip-rule="evenodd" d="M176.974 61.8989C168.316 68.3077 155.737 71.7099 144.921 71.7099C129.763 71.7099 116.105 66.0924 105.789 56.7561C104.974 56.0176 105.711 55.0154 106.684 55.5957C117.842 62.0836 131.605 66.0132 145.842 66.0132C155.447 66.0132 166 64.0088 175.711 59.8946C177.158 59.2352 178.395 60.844 176.974 61.8989Z" fill="black"/>
<path fill-rule="evenodd" clip-rule="evenodd" d="M180.579 57.7847C179.474 56.3606 173.263 57.099 170.447 57.4419C169.605 57.5474 169.474 56.8089 170.237 56.2551C175.184 52.7738 183.316 53.776 184.263 54.9364C185.211 56.1232 184 64.2727 179.368 68.176C178.658 68.7825 177.974 68.4661 178.289 67.6749C179.342 65.0639 181.684 59.1825 180.579 57.7847Z" fill="black"/>
</g>
</g>
<defs>
<clipPath id="clip0_4795_6912">
<rect width="290" height="96" fill="white"/>
</clipPath>
<clipPath id="clip1_4795_6912">
<rect width="80" height="48" fill="white" transform="translate(105 24)"/>
</clipPath>
</defs>
</svg>
