<svg width="290" height="96" viewBox="0 0 290 96" fill="none" xmlns="http://www.w3.org/2000/svg">
<g clip-path="url(#clip0_4575_3397)">
<path d="M123.367 38H118.484V57.9773C125.064 57.9773 131.615 57.9773 138.186 57.9773H143.069V38C136.499 38 129.938 38 123.367 38ZM123.405 53.084V42.9025H138.148V53.084H123.405Z" fill="black"/>
<path d="M146.929 38H165.511C168.826 38 171.514 40.6873 171.514 44.0023V57.9773H166.63V42.9025H151.849V57.9773H146.929V38Z" fill="black"/>
<path d="M200.042 38.001V42.7658H175.419V38.001H200.042Z" fill="black"/>
<path d="M200.042 53.1943V57.95H175.419V53.1943H200.042Z" fill="black"/>
<path d="M175.432 45.584H200.008V50.3396H175.432V45.584Z" fill="black"/>
<path d="M175.419 45.6543L180.333 45.6543L180.333 58L175.419 58L175.419 45.6543Z" fill="black"/>
</g>
<g clip-path="url(#clip1_4575_3397)">
<path d="M90 45.51V56.9364C90 57.4776 90.4466 57.9162 90.9976 57.9162H114.994C114.999 57.9162 115.003 57.9119 115.003 57.9066V52.9832C115.003 52.9778 114.999 52.9736 114.994 52.9736H95.0012C94.9957 52.9736 94.9914 52.9694 94.9914 52.964V50.4522C94.9914 50.4468 94.9957 50.4426 95.0012 50.4426H114.988C114.994 50.4426 114.998 50.4384 114.998 50.433V45.5096C114.998 45.5042 114.994 45.5 114.988 45.5H90.0098C90.0043 45.5 90 45.5042 90 45.5096V45.51Z" fill="black"/>
<path d="M114.988 37.9482H97.3742C97.3688 37.9482 97.3644 37.9525 97.3644 37.9578V42.839C97.3644 42.8443 97.3688 42.8486 97.3742 42.8486H114.988C114.993 42.8486 114.998 42.8443 114.998 42.839V37.9578C114.998 37.9525 114.993 37.9482 114.988 37.9482Z" fill="black"/>
<path d="M95.0321 37.9482H90.0098C90.0044 37.9482 90 37.9525 90 37.9578V42.8897C90 42.895 90.0044 42.8993 90.0098 42.8993H95.0321C95.0375 42.8993 95.0418 42.895 95.0418 42.8897V37.9578C95.0418 37.9525 95.0375 37.9482 95.0321 37.9482Z" fill="black"/>
<path d="M147.328 37.9482V57.916H152.311V43.0041H166.738V57.9164H171.727V38.9138C171.727 38.3807 171.287 37.9482 170.744 37.9482H147.328Z" fill="black"/>
<path d="M175.372 45.4678V56.9142C175.372 57.4496 175.814 57.8836 176.359 57.8836H200.376V52.9414H180.364V50.4104H200.37V45.4678H175.373H175.372Z" fill="black"/>
<path d="M200.37 37.916H175.414V42.8163H200.37V37.916Z" fill="black"/>
<path d="M138.501 43.0637V52.9415C138.501 52.9853 138.465 53.0206 138.421 53.0206H123.76C123.716 53.0206 123.68 52.9853 123.68 52.9415V43.0637C123.68 43.0199 123.716 42.9845 123.76 42.9845H138.421C138.465 42.9845 138.501 43.0199 138.501 43.0637ZM118.651 38.0274V56.9458C118.651 57.4816 119.093 57.916 119.639 57.916H143.563C143.608 57.916 143.644 57.8806 143.644 57.8369V38.9215C143.644 38.3842 143.2 37.9482 142.653 37.9482H118.731C118.687 37.9482 118.651 37.9836 118.651 38.0274H118.651Z" fill="black"/>
</g>
<defs>
<clipPath id="clip0_4575_3397">
<rect width="110" height="19.9773" fill="white" transform="translate(90 38)"/>
</clipPath>
<clipPath id="clip1_4575_3397">
<rect width="112" height="20" fill="white" transform="translate(90 37.916)"/>
</clipPath>
</defs>
</svg>
