<svg width="290" height="96" viewBox="0 0 290 96" fill="none" xmlns="http://www.w3.org/2000/svg">
<path fill-rule="evenodd" clip-rule="evenodd" d="M144.033 39.9243C144.806 39.9243 145.773 40.2164 146.305 41.043C146.643 41.5781 146.885 42.551 146.111 44.1561C146.111 44.1912 145.683 45.0878 145.263 45.9681C145.101 46.3074 144.941 46.6444 144.806 46.9286C144.178 48.2422 143.066 48.9721 141.519 49.1179C142.147 49.5067 143.114 50.2852 142.34 52.231C142.34 52.231 141.374 54.6142 141.084 55.3441C140.745 56.1712 140.6 56.9983 140.6 56.9983H136.539C136.539 56.9983 137.313 54.8086 138.28 52.7179C138.666 51.8903 138.715 51.2095 138.473 50.7716C138.183 50.3338 137.555 50.2852 137.555 50.2852H135.427L132.382 56.9492H128.369L136.346 39.9243H144.033ZM141.519 45.4206L142.244 43.9617C142.438 43.5234 142.486 43.1832 142.34 42.9888C142.244 42.794 141.954 42.7454 141.954 42.7454H138.908L136.781 47.4155H139.585C140.262 47.4155 140.793 47.0262 141.132 46.3454L141.519 45.4206Z" fill="black"/>
<path fill-rule="evenodd" clip-rule="evenodd" d="M101.297 39.9243C102.07 39.9243 103.038 40.2164 103.569 41.043C103.908 41.5781 104.15 42.551 103.376 44.1561C103.376 44.191 102.953 45.0772 102.535 45.9524C102.371 46.297 102.207 46.64 102.07 46.9286C101.442 48.2422 100.331 48.9721 98.7835 49.1179C99.4119 49.5067 100.378 50.2852 99.6051 52.231C99.6051 52.231 98.6382 54.6142 98.3479 55.3441C98.0094 56.1712 97.8649 56.9983 97.8649 56.9983H93.8035C93.8035 56.9983 94.5772 54.8086 95.5442 52.7179C95.931 51.8903 95.9793 51.2095 95.7374 50.7716C95.4476 50.3338 94.8192 50.2852 94.8192 50.2852H92.6921L89.6464 56.9492H85.6338L93.6103 39.9243H101.297ZM98.7835 45.4206L99.5085 43.9617C99.7017 43.5234 99.75 43.1832 99.6051 42.9888C99.5085 42.794 99.2187 42.7454 99.2187 42.7454H96.2208L94.0455 47.4155H96.8492C97.5263 47.4155 98.0581 47.0262 98.3967 46.3454L98.7835 45.4206Z" fill="black"/>
<path fill-rule="evenodd" clip-rule="evenodd" d="M116.235 47.0751C115.075 49.6041 113.963 51.9882 113.141 53.6411C111.981 56.171 110.434 57.0467 107.388 56.9981H104.294C102.795 56.9981 99.7493 56.2682 101.78 51.9387L103.858 47.6583C104.398 46.4581 104.921 45.3586 105.359 44.4387C105.666 43.7928 105.931 43.2354 106.13 42.7938C107.049 40.7998 108.499 39.8269 110.53 39.8269H115.413C117.396 39.8269 118.99 41.1405 117.589 44.1559L116.235 47.0751ZM105.937 53.8359H107.726C108.597 53.8359 108.983 53.6411 109.563 52.4256L113.624 43.6699C113.963 42.94 113.576 42.697 113.141 42.7452H110.966C110.434 42.7452 109.999 42.8919 109.612 43.7671C109.462 44.0946 109.159 44.7513 108.781 45.571C107.7 47.9176 106.004 51.6001 105.503 52.7177C105.019 53.7387 105.647 53.8359 105.937 53.8359Z" fill="black"/>
<path d="M129.336 39.8269H125.227C123.1 39.8269 121.359 40.8975 120.489 42.7942C119.764 44.3994 116.187 51.9392 116.187 51.9392C114.881 54.7116 115.606 56.9976 119.184 56.9976H122.375C124.937 56.9976 126.194 56.6088 127.354 54.0794L130.303 47.5125H124.26L122.955 50.334H125.033L123.874 52.9116C123.535 53.6901 123.293 53.8364 122.471 53.8364H120.392C119.764 53.8364 119.523 53.4957 119.909 52.7177C120.392 51.6957 124.164 43.7667 124.164 43.7667C124.599 42.8914 124.84 42.7456 125.469 42.7456H127.644C128.176 42.7456 128.466 42.9882 128.127 43.6699C128.031 43.8648 127.161 45.7615 127.161 45.7615H130.98L131.851 43.9129C133.107 41.1405 131.995 39.8751 129.336 39.8269" fill="black"/>
<path d="M177.971 56.9495L185.996 39.876H181.838L173.861 56.9495H177.971Z" fill="black"/>
<path d="M196.197 39.8757L186.866 54.9058L191.604 39.8757H187.301L183.337 56.9488H188.897L200.548 39.8757H196.197Z" fill="black"/>
<path d="M164.338 51.0146L163.999 44.6917C163.951 43.9617 164.145 42.8916 165.498 42.8916H168.302L169.704 39.8757H164.966C161.244 39.8757 159.939 42.1617 160.084 44.8861C160.18 46.5398 160.422 51.9394 160.422 51.9394C160.47 53.2525 159.987 53.8366 158.779 53.8366H155.588L154.186 56.9493H159.213C162.598 56.9493 164.531 54.76 164.338 51.0146" fill="black"/>
<path d="M173.813 51.0146L173.474 44.6917C173.426 43.9617 173.619 42.8916 174.973 42.8916H177.777L179.179 39.8757H174.441C171.347 39.8757 169.365 41.5776 169.558 44.8861C169.655 46.5398 169.897 51.9394 169.897 51.9394C169.945 53.2525 169.462 53.8366 168.253 53.8366H165.159L163.709 56.9493H168.688C172.363 56.9493 174.006 54.274 173.813 51.0146" fill="black"/>
<path d="M150.608 39.8757L142.68 56.9488H152.686L154.137 53.8357H148.046L150.221 49.3123H155.346L156.699 46.4426H151.526L153.17 42.8916H158.488L159.89 39.8757H150.608Z" fill="black"/>
<path d="M201.901 39.8757L193.973 56.9488H203.98L205.43 53.8357H199.339L201.514 49.3123H206.639L207.993 46.4426H202.82L204.464 42.8916H209.781C209.83 42.8916 211.183 39.8757 211.183 39.8757H201.901Z" fill="black"/>
<path fill-rule="evenodd" clip-rule="evenodd" d="M82.8773 51.0146H78.9134L76.1575 56.9983H72L79.9282 39.9243H87.5666C89.3073 39.9243 90.9513 41.2865 89.5975 44.2538C89.2222 45.0559 88.881 45.8125 88.5905 46.4566C88.2823 47.1401 88.0312 47.697 87.8569 48.0473C86.7933 50.2366 85.44 51.0146 82.8773 51.0146ZM82.6841 42.6972L80.2672 48.0473H82.829C83.554 48.0473 84.0379 47.7071 84.376 46.9776C84.4248 46.88 85.0044 45.7127 85.7298 44.1071C86.2616 42.9884 85.8264 42.6972 85.2946 42.6972H82.6841Z" fill="black"/>
<path fill-rule="evenodd" clip-rule="evenodd" d="M215.873 39C214.713 39 213.794 39.9239 213.794 41.0921C213.794 42.2594 214.713 43.2318 215.873 43.2318C217.034 43.2318 218 42.2594 218 41.0921C218 39.9239 217.034 39 215.873 39ZM217.758 41.0921C217.758 40.0706 216.888 39.2435 215.873 39.2435C214.858 39.2435 214.036 40.0706 214.036 41.0921C214.036 42.1617 214.858 42.9884 215.873 42.9884C216.888 42.9884 217.758 42.1617 217.758 41.0921ZM216.598 42.308H216.937L216.211 41.1888C216.646 41.1888 216.985 40.994 216.985 40.557C216.985 40.3622 216.888 40.1187 216.695 40.0215C216.55 39.9239 216.308 39.9239 216.115 39.9239H215.099V42.308H215.389V41.1888H215.921L216.598 42.308ZM215.974 40.9496C215.922 40.9477 215.872 40.9458 215.825 40.9458H215.389V40.1187H216.066C216.357 40.1187 216.695 40.1678 216.695 40.557C216.695 40.976 216.3 40.9615 215.974 40.9496Z" fill="black"/>
</svg>
