<svg width="290" height="96" viewBox="0 0 290 96" fill="none" xmlns="http://www.w3.org/2000/svg">
<path d="M191.815 55.0504C191.815 53.532 193.045 52.3 194.558 52.3C196.072 52.3 197.3 53.532 197.3 55.0504C197.3 56.5689 196.072 57.8 194.558 57.8C193.045 57.8 191.815 56.5689 191.815 55.0504" fill="black"/>
<path fill-rule="evenodd" clip-rule="evenodd" d="M105.322 54.6425C107.044 52.9049 107.905 50.4295 107.905 47.217C107.905 44.2317 107.087 41.9504 105.451 40.3699C103.814 38.7902 101.492 38 98.4846 38H92V57.25H98.0614C101.181 57.25 103.601 56.3808 105.322 54.6425ZM101.631 43.4769C102.311 44.3291 102.65 45.6373 102.65 47.4006C102.65 49.288 102.29 50.6905 101.573 51.6072C100.856 52.5255 99.7283 52.983 98.1898 52.983H97.0625V42.2001H98.5359C99.9209 42.2001 100.951 42.6254 101.631 43.4769Z" fill="black"/>
<path d="M124.906 57.25H129.842V38H124.906V57.25Z" fill="black"/>
<path fill-rule="evenodd" clip-rule="evenodd" d="M143.386 55.8309C144.595 54.5194 145.198 52.6896 145.198 50.344C145.198 48.8497 144.918 47.543 144.356 46.4261C143.795 45.3076 142.997 44.449 141.962 43.8496C140.928 43.2501 139.735 42.95 138.387 42.95C136.204 42.95 134.509 43.5977 133.3 44.8932C132.091 46.1887 131.487 48.0056 131.487 50.344C131.487 52.6308 132.104 54.4445 133.337 55.7867C134.569 57.1289 136.228 57.8 138.313 57.8C140.487 57.8 142.178 57.1433 143.386 55.8309ZM136.774 53.1595C136.459 52.5142 136.301 51.5751 136.301 50.344C136.301 49.1113 136.459 48.1851 136.774 47.5647C137.09 46.9451 137.61 46.6337 138.337 46.6337C139.081 46.6337 139.606 46.9467 139.914 47.5719C140.221 48.1956 140.374 49.1193 140.374 50.344C140.374 51.5751 140.223 52.5142 139.92 53.1595C139.617 53.8056 139.097 54.1283 138.362 54.1283C137.618 54.1283 137.09 53.8056 136.774 53.1595Z" fill="black"/>
<path d="M147.393 57.25H152.329V49.8821V42.95H147.393V57.25Z" fill="black"/>
<path d="M147.393 41.3H152.329V38H147.393V41.3Z" fill="black"/>
<path d="M162.557 53.8588C163.223 53.8588 164.016 53.6918 164.942 53.3602V56.9965C164.277 57.2851 163.644 57.4918 163.043 57.6143C162.442 57.7383 161.737 57.7999 160.929 57.7999C159.273 57.7999 158.079 57.3889 157.346 56.5684C156.616 55.7479 156.249 54.4879 156.249 52.7878V46.8303H154.521V43.0943H156.249V39.4037L161.221 38.5499V43.0943H164.369V46.8303H161.221V52.4554C161.221 53.391 161.667 53.8588 162.557 53.8588" fill="black"/>
<path d="M173.526 53.8588C174.192 53.8588 174.985 53.6918 175.911 53.3602V56.9965C175.246 57.2851 174.613 57.4918 174.012 57.6143C173.41 57.7383 172.707 57.7999 171.898 57.7999C170.242 57.7999 169.048 57.3889 168.317 56.5684C167.585 55.7479 167.219 54.4879 167.219 52.7878V46.8303H165.49V43.0943H167.219V39.3477L172.189 38.5499V43.0943H175.338V46.8303H172.189V52.4554C172.189 53.391 172.635 53.8588 173.526 53.8588" fill="black"/>
<path fill-rule="evenodd" clip-rule="evenodd" d="M183.734 42.95C185.787 42.95 187.374 43.514 188.492 44.6406C189.611 45.7664 190.17 47.3895 190.17 49.5083V51.7108H181.761C181.793 52.5122 182.073 53.1415 182.597 53.5978C183.122 54.0533 183.838 54.281 184.745 54.281C185.572 54.281 186.331 54.1981 187.024 54.0331C187.503 53.9197 188.01 53.7475 188.544 53.5238L189.267 56.7563C188.533 57.1489 187.776 57.4209 186.995 57.5714C186.208 57.7235 185.27 57.8 184.18 57.8C181.91 57.8 180.147 57.1642 178.891 55.8944C177.637 54.6246 177.008 52.8156 177.008 50.4699C177.008 48.0477 177.59 46.1889 178.753 44.8933C179.916 43.5977 181.577 42.95 183.734 42.95ZM182.512 46.8681C182.139 47.2358 181.921 47.8112 181.857 48.5966H185.899C185.884 47.9045 185.697 47.3517 185.339 46.9389C184.984 46.5236 184.505 46.3176 183.902 46.3176C183.349 46.3176 182.887 46.5011 182.512 46.8681Z" fill="black"/>
<path fill-rule="evenodd" clip-rule="evenodd" d="M116.276 42.95C118.33 42.95 119.916 43.514 121.035 44.6406C122.153 45.7664 122.712 47.3895 122.712 49.5083V51.7108H114.303C114.335 52.5122 114.614 53.1415 115.139 53.5978C115.664 54.0533 116.38 54.281 117.287 54.281C118.114 54.281 118.872 54.1981 119.566 54.0331C120.045 53.9197 120.552 53.7475 121.086 53.5238L121.809 56.7563C121.075 57.1489 120.318 57.4209 119.537 57.5714C118.75 57.7235 117.812 57.8 116.722 57.8C114.452 57.8 112.689 57.1642 111.434 55.8944C110.178 54.6246 109.55 52.8156 109.55 50.4699C109.55 48.0477 110.132 46.1889 111.295 44.8933C112.458 43.5977 114.118 42.95 116.276 42.95ZM115.054 46.8681C114.682 47.2358 114.463 47.8112 114.399 48.5966H118.442C118.425 47.9045 118.24 47.3517 117.882 46.9389C117.525 46.5236 117.046 46.3176 116.445 46.3176C115.891 46.3176 115.428 46.5011 115.054 46.8681Z" fill="black"/>
</svg>
