<svg width="290" height="96" viewBox="0 0 290 96" fill="none" xmlns="http://www.w3.org/2000/svg">
<path fill-rule="evenodd" clip-rule="evenodd" d="M87.9142 46.7823V54.2159L97.6895 60.1628L107.475 54.2159V44.446L99.1315 49.501C98.2147 50.053 97.1641 50.053 96.2473 49.501L84.8961 42.6089C83.7013 41.8761 83.7013 40.0388 84.8961 39.3168L96.2473 32.4142C97.1641 31.8619 98.2147 31.8619 99.1315 32.4142L107.475 37.4903L103.633 39.8159L97.6895 36.2159L94.9083 37.9151L89.8816 40.984L92.5289 42.5876L97.6895 45.7523L108.237 39.3593C108.835 39.0088 109.648 39.0513 110.246 39.3698C110.895 39.7203 111.379 40.4106 111.379 41.2603V54.8638C111.379 55.9257 110.864 56.8495 109.978 57.3912L99.1315 63.9858C98.2252 64.5381 97.1641 64.5381 96.2473 63.9858L85.4009 57.3912C84.515 56.8495 84.0103 55.9362 84.0103 54.8638V52.7079V44.4248L87.9142 46.7823Z" fill="black"/>
<path fill-rule="evenodd" clip-rule="evenodd" d="M136.81 52.1267C136.81 49.6251 135.466 48.0549 132.583 47.4794L130.111 47.0083C128.438 46.6732 127.802 46.0975 127.802 45.0612C127.802 43.9099 128.849 43.1562 130.501 43.1562C132.214 43.1562 133.496 43.8157 133.496 45.4173H136.553C136.553 41.8898 133.599 40.5604 130.542 40.5604C126.807 40.5604 124.612 42.6433 124.612 45.344C124.612 47.7409 126.161 49.2691 128.951 49.803L131.414 50.2845C132.932 50.5775 133.578 51.1114 133.578 52.2103C133.578 53.4769 132.409 54.2724 130.675 54.2724C128.479 54.2724 127.412 53.3408 127.412 52.043H124.263C124.263 54.9843 126.694 56.9311 130.675 56.9311C134.122 56.9311 136.81 55.204 136.81 52.1267V52.1267ZM201.054 44.9986C199.382 44.9986 198.038 45.6789 197.453 46.7047V40.1H194.396V56.7324H197.238L197.412 55.1832C197.976 56.1775 199.341 56.9521 201.054 56.9521C204.163 56.9521 206.399 54.8064 206.399 50.9754C206.399 47.3013 204.296 44.9986 201.054 44.9986V44.9986ZM200.388 54.1889C198.736 54.1889 197.495 52.9955 197.495 50.9754C197.495 48.9866 198.736 47.7514 200.388 47.762C202.06 47.7724 203.271 48.9866 203.271 50.9754C203.271 52.9641 202.06 54.1889 200.388 54.1889V54.1889ZM181.407 50.9755C181.407 54.5657 183.859 56.9522 187.317 56.9522C190.764 56.9522 193.216 54.5657 193.216 50.9755C193.216 47.406 190.764 44.9777 187.317 44.9777C183.859 44.9777 181.407 47.406 181.407 50.9755V50.9755ZM184.516 50.9544C184.516 48.8923 185.624 47.6049 187.317 47.6049C189.01 47.6049 190.118 48.8923 190.118 50.9544C190.118 52.9954 189.01 54.3143 187.317 54.3143C185.624 54.3143 184.516 52.9954 184.516 50.9544V50.9544ZM178.258 48.4736C179.797 47.8246 180.258 46.3489 180.258 45.0823C180.258 42.4236 178.432 40.7908 174.985 40.7908H168.357V56.7324H175.436C178.72 56.7324 180.782 55.068 180.782 52.2628C180.782 50.5567 179.91 49.0494 178.258 48.4736V48.4736ZM177.088 45.4592C177.088 46.5897 176.35 47.4794 174.872 47.4794H171.466V43.5123H174.759C176.37 43.5123 177.088 44.3497 177.088 45.4592V45.4592ZM175.16 54.0109H171.466V49.981H175.221C176.627 49.981 177.519 50.7346 177.519 52.0431C177.519 53.3201 176.657 54.0109 175.16 54.0109V54.0109ZM161.546 44.9987C159.812 44.9987 158.468 45.7942 157.904 46.7884L157.729 45.2184H154.887V61.16H157.924V55.2669C158.509 56.2928 159.894 56.973 161.546 56.973C164.808 56.973 166.891 54.6493 166.891 50.9962C166.891 47.1444 164.634 44.9987 161.546 44.9987V44.9987ZM160.879 54.2096C159.227 54.2096 157.985 53.0165 157.985 51.0172C157.985 49.0075 159.227 47.762 160.879 47.762C162.551 47.7828 163.761 49.0075 163.761 50.9962C163.761 53.0165 162.551 54.2096 160.879 54.2096V54.2096ZM150.24 43.4495H153.318V40.4558H150.24V43.4495ZM150.281 56.7324H153.318V45.2184H150.281V56.7324ZM144.238 44.9986C142.638 44.9986 141.509 45.5952 140.894 46.5058V40.1H137.857V56.7324H140.894V50.5986C140.894 48.9133 141.786 47.8246 143.397 47.8038C144.915 47.762 145.808 48.7354 145.808 50.6822V56.7324H148.845V50.2217C148.845 46.129 146.352 44.9986 144.238 44.9986V44.9986Z" fill="black"/>
</svg>
