<svg width="290" height="96" viewBox="0 0 290 96" fill="none" xmlns="http://www.w3.org/2000/svg">
<path fill-rule="evenodd" clip-rule="evenodd" d="M90.4795 43.7784V38H87.8219V43.7784H85V46.0788H87.8219V53.0621C87.8219 55.8828 89.6028 57.5808 92.3973 57.5808H94.5616V55.2803H92.6165C91.274 55.2803 90.4795 54.4588 90.4795 52.9799V46.0788H94.5616V43.7784H90.4795ZM108.617 53.0898C108.124 55.9378 105.63 57.8 102.233 57.8C97.9592 57.8 95.3017 54.4316 95.3017 50.5976C95.3017 46.7362 97.7126 43.5595 101.959 43.5595C106.233 43.5595 108.507 46.5993 108.507 50.1047C108.507 50.4607 108.48 50.8989 108.452 51.1453H97.9044C98.1235 53.7469 99.8222 55.527 102.233 55.527C104.261 55.527 105.576 54.6507 105.959 53.0898H108.617ZM97.9866 49.2009H105.822C105.658 47.0923 104.233 45.6955 101.959 45.6955C99.7948 45.6955 98.3976 46.9005 97.9866 49.2009ZM122.041 57.5809V48.6806C122.041 45.6134 119.685 43.5595 116.124 43.5595C112.863 43.5595 110.397 45.586 110.178 48.2972H112.644C112.726 46.9005 114.124 45.6955 116.041 45.6955C118.178 45.6955 119.384 46.8457 119.384 48.5163C119.384 49.0092 119.083 49.3378 118.452 49.3378H115.576C112.315 49.3378 110.206 50.9809 110.206 53.6374C110.206 56.1021 112.069 57.8 114.891 57.8C116.973 57.8 118.726 56.8141 119.384 55.3353V57.5809H122.041ZM119.384 51.2001V51.5287C119.384 54.0756 117.932 55.6914 115.411 55.6914C113.877 55.6914 112.836 54.8424 112.836 53.5827C112.836 52.1312 114.014 51.2001 115.822 51.2001H119.384ZM130.753 43.5595C126.397 43.5595 123.904 46.8732 123.904 50.6798C123.904 54.4864 126.397 57.8 130.753 57.8C134.26 57.8 136.726 55.8283 137.164 52.9254H134.534C134.096 54.4864 132.699 55.4723 130.808 55.4723C128.07 55.4723 126.672 53.3362 126.672 50.6798C126.672 48.0233 128.041 45.8873 130.808 45.8873C132.671 45.8873 134.26 47.0375 134.507 48.5984H137.164C136.781 45.4765 133.986 43.5595 130.753 43.5595ZM138.862 38H141.52V46.2157C142.261 44.4904 143.904 43.5593 145.959 43.5593C149.083 43.5593 151.11 45.8049 151.11 49.0911V57.5808H148.452V49.6115C148.452 47.4207 147.165 45.9418 145.22 45.9418C143.055 45.9418 141.521 47.6945 141.521 50.1044V57.5808H138.863L138.862 38ZM169.932 48.6806V57.5809H167.275V55.3353C166.617 56.8141 164.864 57.8 162.782 57.8C159.96 57.8 158.097 56.1021 158.097 53.6374C158.097 50.9809 160.206 49.3378 163.466 49.3378H166.343C166.973 49.3378 167.275 49.0092 167.275 48.5163C167.275 46.8457 166.069 45.6955 163.932 45.6955C162.014 45.6955 160.617 46.9005 160.535 48.2972H158.069C158.288 45.586 160.754 43.5595 164.014 43.5595C167.575 43.5595 169.932 45.6134 169.932 48.6806ZM167.275 51.5287V51.2001H163.713C161.905 51.2001 160.727 52.1312 160.727 53.5827C160.727 54.8424 161.768 55.6914 163.302 55.6914C165.823 55.6914 167.274 54.0756 167.274 51.5287H167.275ZM174.971 57.5808V55.5268C175.766 56.896 177.466 57.7998 179.3 57.7998C183.547 57.7998 185.93 54.7874 185.93 50.6795C185.93 46.5717 183.547 43.5593 179.328 43.5593C177.437 43.5593 175.766 44.463 174.971 45.8049V38H172.314V57.5808H174.971ZM178.998 45.8871C181.546 45.8871 183.245 47.8041 183.245 50.6796C183.245 53.555 181.546 55.472 178.998 55.472C176.423 55.472 174.752 53.555 174.752 50.6796C174.752 47.8041 176.423 45.8871 178.998 45.8871ZM190.398 38H187.741V57.5808H190.398V38ZM199.218 57.8C202.615 57.8 205.108 55.9378 205.6 53.0898H202.941C202.558 54.6507 201.243 55.527 199.217 55.527C196.806 55.527 195.107 53.7469 194.888 51.1453H205.436C205.463 50.8989 205.491 50.4607 205.491 50.1047C205.491 46.5993 203.217 43.5595 198.945 43.5595C194.698 43.5595 192.286 46.7362 192.286 50.5976C192.286 54.4316 194.944 57.8 199.218 57.8ZM202.809 49.2009H194.972C195.383 46.9005 196.781 45.6955 198.948 45.6955C201.22 45.6955 202.646 47.0923 202.809 49.2009ZM156.04 45.3185V48.3036H153.108V45.3185H156.04ZM156.04 54.6296V57.5804H153.108V54.6228L156.04 54.6296Z" fill="black"/>
</svg>
