<svg width="290" height="96" viewBox="0 0 290 96" fill="none" xmlns="http://www.w3.org/2000/svg">
<path d="M218.508 39.2855H217.933V39.0415H219.324V39.2855H218.748V40.8961H218.508V39.2855ZM219.756 39.0415H220.188L220.763 40.5545L221.339 39.0415H221.771V40.8961H221.531V39.2855L220.907 40.8961H220.667L220.092 39.2855V40.8961H219.852V39.0415H219.756Z" fill="black"/>
<path d="M72.8953 53.5893H68V39.2852H72.8953C77.1188 39.2852 80.1904 42.2632 80.1904 46.4128C80.1904 48.268 79.4705 50.1719 78.2226 51.5389C76.9268 53.0035 75.439 53.5893 72.8953 53.5893ZM70.2557 51.6854H72.6554C74.4311 51.6854 75.391 51.3436 76.2549 50.5137C77.2628 49.4885 77.8867 47.8286 77.8867 46.364C77.8867 43.4348 75.631 41.2379 72.6554 41.2379H70.2557V51.6854V51.6854Z" fill="black"/>
<path d="M95.3554 53.5893H86.8125V39.2852H95.1634V41.1891H89.0682V45.3388H94.1075V47.2916H89.0682V51.6854H95.3554V53.5893Z" fill="black"/>
<path d="M107.306 53.8827C106.346 53.8827 105.434 53.7362 104.618 53.3945C104.09 53.1992 103.707 52.9551 102.747 52.3693L102.555 52.2228L103.707 50.4653L103.899 50.6118C104.666 51.1488 105.002 51.2952 105.482 51.4905C106.106 51.7346 106.73 51.8323 107.402 51.8323C108.938 51.8323 109.802 51.1488 109.802 49.9771C109.802 49.6354 109.754 49.2936 109.61 49.0984C109.37 48.7078 108.986 48.3172 108.506 48.0731C108.458 48.0243 108.314 47.9755 108.17 47.8779C107.786 47.6826 107.114 47.3408 106.154 46.8038C103.947 45.6322 103.035 44.5093 103.035 42.9471C103.035 40.6037 105.002 39.0415 107.882 39.0415C108.746 39.0415 109.61 39.1391 110.33 39.3832C110.906 39.5785 111.242 39.725 112.057 40.2132L112.249 40.3596L111.194 42.2148L111.002 42.1171C110.282 41.6778 109.994 41.5801 109.562 41.4337C109.082 41.2872 108.218 41.1407 107.69 41.1407C106.25 41.1407 105.242 41.8242 105.242 42.8494C105.242 43.6794 105.674 44.1676 108.554 45.681C109.562 46.218 110.33 46.7062 110.81 47.0967C111.529 47.6826 111.961 48.7078 111.961 49.7818C112.153 52.2716 110.282 53.8827 107.306 53.8827Z" fill="black"/>
<path d="M126.886 53.8822C122.519 53.8822 119.447 50.8065 119.447 46.364C119.447 42.1655 122.567 38.9922 126.742 38.9922C127.654 38.9922 128.566 39.1386 129.478 39.4804C130.102 39.7245 130.438 39.8709 131.158 40.3591L131.35 40.5056L130.198 42.2143L130.006 42.0678C128.998 41.3844 127.99 41.0426 126.694 41.0426C123.815 41.0426 121.847 43.1907 121.847 46.2175C121.847 49.5861 123.863 51.7341 127.03 51.7341C128.182 51.7341 129.046 51.5388 130.15 51.0995L130.39 51.0018L131.062 52.8082L130.87 52.9058C130.054 53.2963 129.67 53.394 128.95 53.5893C128.182 53.7845 127.558 53.8822 126.886 53.8822Z" fill="black"/>
<path d="M166.386 53.5893H163.795L159.955 47.6333H158.467V53.5893H156.26V39.2852H160.771C162.499 39.2852 163.411 39.5781 164.227 40.3592C164.947 41.0427 165.427 42.1655 165.427 43.2395C165.427 44.4112 164.947 45.5341 164.131 46.3152C163.603 46.8522 163.123 47.0963 162.259 47.3404L166.386 53.5893ZM158.467 45.7294H160.483C162.211 45.7294 163.027 44.9482 163.027 43.2884C163.027 42.5073 162.835 41.9214 162.355 41.5797C162.019 41.2868 161.731 41.2379 160.483 41.2379H158.467V45.7294Z" fill="black"/>
<path d="M178.961 53.5893H176.705V41.1891H172.05V39.2852H183.616V41.1891H178.961V53.5893Z" fill="black"/>
<path d="M200.125 53.5893H191.582V39.2852H199.933V41.1891H193.79V45.3388H198.877V47.2916H193.79V51.6854H200.125V53.5893Z" fill="black"/>
<path d="M212.267 53.8827C211.307 53.8827 210.395 53.7362 209.579 53.3945C209.051 53.1992 208.667 52.9551 207.755 52.3693L207.563 52.2228L208.715 50.4653L208.907 50.6118C209.675 51.1488 210.011 51.2952 210.491 51.4905C211.115 51.7346 211.739 51.8323 212.411 51.8323C213.947 51.8323 214.81 51.1488 214.81 49.9771C214.81 49.6354 214.762 49.2936 214.619 49.0984C214.379 48.7078 213.995 48.3172 213.515 48.0731C213.467 48.0243 213.323 47.9755 213.179 47.8779C212.795 47.6826 212.123 47.3408 211.163 46.8038C208.955 45.6322 208.043 44.5093 208.043 42.9471C208.043 40.6037 210.011 39.0415 212.939 39.0415C213.803 39.0415 214.667 39.1391 215.386 39.3832C215.962 39.5785 216.298 39.725 217.114 40.2132L217.306 40.3596L216.25 42.2148L216.058 42.1171C215.338 41.6778 215.05 41.5801 214.619 41.4337C214.139 41.2872 213.323 41.1407 212.747 41.1407C211.307 41.1407 210.299 41.8242 210.299 42.8494C210.299 43.6794 210.731 44.1676 213.611 45.681C214.619 46.218 215.386 46.7062 215.866 47.0967C216.586 47.6826 217.018 48.7078 217.018 49.7818C217.114 52.2716 215.194 53.8827 212.267 53.8827Z" fill="black"/>
<path d="M132.073 57.0069C135.145 54.8588 138.888 53.6383 142.872 53.6383C144.648 53.6383 146.375 53.8824 147.959 54.3218V37.479L132.073 57.0069Z" fill="black"/>
</svg>
