<svg width="290" height="96" viewBox="0 0 290 96" fill="none" xmlns="http://www.w3.org/2000/svg">
<path d="M97.9997 34C93.9198 34 89.8999 34.6 86 35.8V49C86 55.9 90.7999 60.52 97.9997 62.8C105.199 60.52 109.999 55.9 109.999 49V35.8C106.099 34.6 102.08 34 97.9997 34ZM104 37V48.4L97.9997 44.8L91.9998 48.4V37C93.7998 36.4 97.9997 36.4 97.9997 36.4C97.9997 36.4 102.2 36.4 104 37ZM97.9997 60.28C95.4197 59.44 93.0798 58 91.1599 56.08L97.9997 51.94L104.839 56.08C102.92 58 100.58 59.44 97.9997 60.28Z" fill="black"/>
<path d="M135.619 41.7998H140.238L135.619 56.1998H131.599L129.319 48.5198L127.039 56.1998H123.019L118.459 41.7998H123.019L125.119 49.5398L127.339 41.7998H131.359L133.579 49.5398L135.619 41.7998Z" fill="black"/>
<path d="M152.958 54.3999C150.018 57.3999 145.218 57.3999 142.218 54.4599C140.778 53.0199 139.938 51.0399 139.998 48.9999C139.998 44.7999 143.358 41.3799 147.558 41.3799C151.758 41.3799 155.178 44.7399 155.178 48.9399V48.9999C155.178 51.0399 154.398 52.9599 152.958 54.3999ZM145.218 51.4599C146.538 52.7199 148.638 52.7199 149.898 51.4599C150.558 50.7999 150.858 49.8999 150.858 48.9999C150.918 48.0999 150.558 47.1999 149.898 46.5399C148.578 45.2799 146.478 45.2799 145.218 46.5399C144.558 47.1999 144.198 48.0999 144.258 48.9999C144.198 49.8999 144.558 50.7999 145.218 51.4599Z" fill="black"/>
<path d="M165.257 41.3798C166.697 41.3198 168.077 41.9198 169.097 42.9398C170.177 44.1398 170.717 45.6998 170.657 47.3198V56.1998H166.337V47.9798C166.397 47.2598 166.157 46.5398 165.617 46.0598C165.137 45.5798 164.477 45.3398 163.817 45.3998C163.097 45.3398 162.377 45.6398 161.897 46.1198C161.357 46.7198 161.117 47.5598 161.177 48.3398V56.1998H156.857V41.7998H161.177V43.1798C162.017 41.9798 163.397 41.3798 165.257 41.3798Z" fill="black"/>
<path d="M183.257 37.42L187.577 36.04V56.2H183.257V54.82C182.177 56.02 180.618 56.68 178.998 56.56C177.138 56.56 175.338 55.78 174.138 54.34C172.818 52.84 172.098 50.92 172.158 48.94C172.098 46.96 172.818 45.04 174.138 43.54C175.338 42.1 177.138 41.32 178.998 41.32C180.618 41.2 182.177 41.86 183.257 43.06V37.42ZM177.378 51.58C178.758 52.84 180.918 52.84 182.297 51.58C182.957 50.92 183.317 49.96 183.257 49C183.317 48.04 182.957 47.14 182.297 46.42C180.918 45.16 178.758 45.16 177.378 46.42C176.718 47.08 176.358 48.04 176.418 49C176.418 49.96 176.718 50.86 177.378 51.58Z" fill="black"/>
<path d="M193.817 50.7399C194.297 52.0599 195.437 52.7799 197.237 52.7799C198.257 52.8399 199.277 52.4199 199.997 51.6999L203.417 53.6799C201.977 55.6599 199.937 56.6199 197.177 56.6199C195.017 56.7399 192.977 55.9599 191.417 54.4599C189.977 53.0199 189.197 51.0399 189.257 48.9999C189.137 44.9199 192.317 41.4999 196.397 41.3799C196.577 41.3799 196.697 41.3799 196.877 41.3799C198.857 41.3199 200.717 42.0999 202.097 43.5399C203.477 44.9799 204.257 46.9599 204.197 48.9399C204.197 49.5399 204.137 50.0799 204.017 50.6799L193.817 50.7399ZM193.757 47.4999H199.937C199.637 46.0599 198.317 45.0999 196.877 45.2199C195.197 45.2199 194.177 45.9999 193.757 47.4999Z" fill="black"/>
</svg>
