<svg width="290" height="96" viewBox="0 0 290 96" fill="none" xmlns="http://www.w3.org/2000/svg">
<path d="M104.639 58.1738C106.674 58.1738 108.324 56.5784 108.324 54.6104C108.324 52.6423 106.674 51.0469 104.639 51.0469C102.603 51.0469 100.953 52.6423 100.953 54.6104C100.953 56.5784 102.603 58.1738 104.639 58.1738Z" fill="black"/>
<path d="M107.794 38.8948C107.847 44.6377 104.367 46.8976 101.397 49.4905C98.5726 51.9628 96.0066 53.1573 96.0066 57.2003C95.9842 57.4374 95.8704 57.6577 95.6877 57.8173C95.505 57.9769 95.2669 58.0642 95.0206 58.0618H92.0508C91.7874 58.0633 91.534 57.9644 91.3455 57.7865C91.157 57.6086 91.0487 57.366 91.044 57.1113C91.0232 51.4574 94.7652 48.9908 97.8895 46.1165C100.295 43.9055 102.769 42.3492 102.831 38.9063C102.837 38.6556 102.944 38.417 103.128 38.2408C103.313 38.0646 103.561 37.9645 103.82 37.9616H106.79C107.051 37.957 107.303 38.0526 107.492 38.2276C107.68 38.4025 107.788 38.6425 107.794 38.8948Z" fill="black"/>
<path d="M95.9539 38.9205V44.5485C95.9513 44.8026 95.8445 45.0453 95.6569 45.2233L92.7821 48.0517C92.6569 48.2143 92.4815 48.3342 92.2812 48.3941C92.0809 48.454 91.8661 48.4508 91.6678 48.385C91.4695 48.3192 91.298 48.1941 91.178 48.0279C91.058 47.8617 90.9958 47.6629 91.0002 47.4602V38.9205C90.9998 38.7944 91.0252 38.6696 91.0749 38.553C91.1246 38.4365 91.1977 38.3306 91.2899 38.2415C91.3821 38.1524 91.4916 38.0817 91.6121 38.0337C91.7326 37.9856 91.8618 37.9611 91.9921 37.9614H94.962C95.0924 37.9611 95.2215 37.9856 95.342 38.0337C95.4626 38.0817 95.5721 38.1524 95.6643 38.2415C95.7564 38.3306 95.8295 38.4365 95.8792 38.553C95.9289 38.6696 95.9543 38.7944 95.9539 38.9205V38.9205Z" fill="black"/>
<path d="M142.08 43.0378H140.558C140.281 43.0378 140.057 43.2703 140.057 43.557V57.317C140.057 57.6037 140.281 57.8362 140.558 57.8362H142.08C142.357 57.8362 142.582 57.6037 142.582 57.317V43.557C142.582 43.2703 142.357 43.0378 142.08 43.0378Z" fill="black"/>
<path d="M122.372 49.7799L128.362 43.1743C128.453 43.0865 128.573 43.0387 128.696 43.0408H130.167C130.275 43.0222 130.386 43.0431 130.482 43.0998C130.577 43.1565 130.651 43.2456 130.69 43.352C130.729 43.4584 130.732 43.5755 130.697 43.6837C130.663 43.7918 130.593 43.8844 130.501 43.9456L124.644 50.3682L131.326 56.9689C131.404 57.0382 131.459 57.1318 131.481 57.2356C131.503 57.3394 131.493 57.4479 131.451 57.5451C131.409 57.6422 131.338 57.7228 131.249 57.7749C131.159 57.827 131.056 57.8478 130.954 57.8341H129.36C129.29 57.834 129.22 57.8185 129.156 57.7886C129.092 57.7588 129.035 57.7154 128.988 57.6611L122.372 51.0555V49.7799Z" fill="black"/>
<path d="M134.584 43.0379H136.102C136.229 43.0379 136.35 43.09 136.44 43.1827C136.529 43.2754 136.579 43.4012 136.579 43.5323V57.3121C136.579 57.4432 136.529 57.569 136.44 57.6617C136.35 57.7544 136.229 57.8065 136.102 57.8065H134.579C134.453 57.8065 134.331 57.7544 134.242 57.6617C134.152 57.569 134.102 57.4432 134.102 57.3121V43.557C134.099 43.4896 134.109 43.4223 134.132 43.359C134.155 43.2958 134.19 43.2381 134.235 43.1895C134.28 43.1409 134.334 43.1023 134.394 43.0763C134.455 43.0502 134.519 43.0371 134.584 43.0379Z" fill="black"/>
<path d="M120.351 43.0378H121.874C122 43.0378 122.122 43.0899 122.211 43.1827C122.301 43.2754 122.351 43.4011 122.351 43.5323V57.3121C122.351 57.4432 122.301 57.569 122.211 57.6617C122.122 57.7544 122 57.8065 121.874 57.8065H120.351C120.224 57.8065 120.103 57.7544 120.013 57.6617C119.924 57.569 119.874 57.4432 119.874 57.3121V43.557C119.87 43.49 119.88 43.4231 119.903 43.3602C119.925 43.2973 119.96 43.2398 120.005 43.1913C120.049 43.1427 120.103 43.1041 120.163 43.0777C120.222 43.0513 120.286 43.0378 120.351 43.0378Z" fill="black"/>
<path d="M152.741 50.4072V57.3293C152.741 57.3963 152.728 57.4627 152.702 57.5244C152.677 57.586 152.64 57.6417 152.593 57.6879C152.546 57.7342 152.49 57.7701 152.43 57.7934C152.369 57.8167 152.304 57.8271 152.24 57.8237H150.717C150.652 57.8271 150.588 57.8167 150.527 57.7934C150.466 57.7701 150.411 57.7342 150.364 57.6879C150.317 57.6417 150.28 57.586 150.254 57.5244C150.229 57.4627 150.216 57.3963 150.216 57.3293V50.6594C150.216 46.7039 149.285 45.2701 146.755 45.2701C146.044 45.2289 145.336 45.401 144.716 45.7658C144.096 46.1306 143.591 46.6726 143.261 47.3269C142.784 48.2614 142.607 49.4728 142.607 51.5296V45.5223C142.606 45.3981 142.646 45.2774 142.722 45.1811C143.786 43.861 145.28 43.2034 147.299 43.2034C149.61 43.2034 151.261 44.1082 152.073 45.8189C152.531 46.8572 152.741 48.2911 152.741 50.4072Z" fill="black"/>
<path d="M157.786 51.1015C157.848 54.2807 159.772 56.12 163.08 56.12C164.549 56.1415 166.004 55.8204 167.337 55.1805C167.399 55.1513 167.466 55.1353 167.534 55.1334C167.602 55.1316 167.67 55.1439 167.733 55.1698C167.796 55.1956 167.854 55.2344 167.902 55.2838C167.951 55.3333 167.989 55.3923 168.015 55.4574L168.392 56.382C168.444 56.5044 168.447 56.6425 168.403 56.7677C168.358 56.8929 168.269 56.9956 168.154 57.0544C166.555 57.8227 164.809 58.2048 163.046 58.1719C158.144 58.1719 155.29 55.3388 155.29 50.4488C155.29 45.6825 157.996 42.7258 162.388 42.7258C166.684 42.7258 169.271 45.4946 169.271 50.078V50.5725C169.274 50.6416 169.263 50.7107 169.239 50.7752C169.215 50.8398 169.179 50.8985 169.131 50.9474C169.084 50.9964 169.028 51.0345 168.965 51.0593C168.903 51.0842 168.836 51.0952 168.769 51.0916L157.786 51.1015ZM166.808 49.1238C166.65 46.2709 165.123 44.7876 162.445 44.7876C159.767 44.7876 158.058 46.3451 157.848 49.1139L166.808 49.1238Z" fill="black"/>
<path d="M181.682 43.0385H183.204C183.331 43.0385 183.452 43.0906 183.542 43.1833C183.631 43.276 183.681 43.4018 183.681 43.5329V57.3127C183.681 57.4439 183.631 57.5696 183.542 57.6623C183.452 57.7551 183.331 57.8072 183.204 57.8072H181.682C181.617 57.8105 181.552 57.8002 181.492 57.7769C181.431 57.7535 181.375 57.7176 181.328 57.6714C181.282 57.6251 181.244 57.5695 181.219 57.5078C181.193 57.4462 181.18 57.3798 181.18 57.3127V43.5576C181.177 43.4885 181.188 43.4194 181.211 43.3548C181.235 43.2903 181.272 43.2316 181.319 43.1827C181.367 43.1337 181.423 43.0956 181.486 43.0708C181.548 43.0459 181.615 43.0349 181.682 43.0385V43.0385Z" fill="black"/>
<path d="M189.679 49.7799L195.669 43.1743C195.759 43.0865 195.879 43.0387 196.003 43.0408H197.473C197.582 43.0222 197.693 43.0431 197.788 43.0998C197.884 43.1565 197.957 43.2456 197.997 43.352C198.036 43.4584 198.039 43.5755 198.004 43.6837C197.97 43.7918 197.9 43.8844 197.807 43.9456L191.946 50.3682L198.628 56.9689C198.706 57.0382 198.76 57.1318 198.783 57.2356C198.805 57.3394 198.795 57.4479 198.753 57.5451C198.711 57.6422 198.64 57.7228 198.551 57.7749C198.461 57.827 198.358 57.8478 198.256 57.8341H196.662C196.592 57.834 196.522 57.8185 196.458 57.7886C196.394 57.7588 196.336 57.7154 196.29 57.6611L189.679 51.0555V49.7799Z" fill="black"/>
<path d="M187.651 43.0385H189.173C189.238 43.0351 189.303 43.0454 189.363 43.0688C189.424 43.0921 189.48 43.128 189.526 43.1742C189.573 43.2205 189.611 43.2761 189.636 43.3378C189.662 43.3994 189.675 43.4658 189.675 43.5329V57.3127C189.675 57.3798 189.662 57.4461 189.636 57.5078C189.611 57.5694 189.573 57.6251 189.526 57.6713C189.48 57.7176 189.424 57.7535 189.363 57.7768C189.303 57.8002 189.238 57.8105 189.173 57.8071H187.651C187.524 57.8071 187.403 57.755 187.313 57.6623C187.224 57.5696 187.173 57.4438 187.173 57.3127V43.5576C187.17 43.4906 187.18 43.4237 187.203 43.3608C187.225 43.2979 187.26 43.2405 187.305 43.1919C187.349 43.1433 187.403 43.1047 187.462 43.0783C187.522 43.0519 187.586 43.0384 187.651 43.0385Z" fill="black"/>
<path d="M178.461 56.3075C178.459 56.2305 178.44 56.155 178.406 56.0863C178.372 56.0177 178.324 55.9576 178.266 55.9104C178.207 55.8632 178.139 55.83 178.066 55.8132C177.993 55.7964 177.918 55.7963 177.846 55.8131C177.604 55.8664 177.357 55.8912 177.111 55.8873C175.201 55.8873 174.724 55.1407 174.724 52.3669V45.1581H176.562C176.628 45.1616 176.695 45.1506 176.757 45.1258C176.82 45.101 176.876 45.0629 176.924 45.0139C176.971 44.965 177.008 44.9063 177.032 44.8417C177.056 44.7771 177.066 44.708 177.063 44.6389V43.5611C177.063 43.494 177.05 43.4276 177.024 43.366C176.999 43.3043 176.962 43.2487 176.915 43.2024C176.868 43.1562 176.812 43.1203 176.752 43.0969C176.691 43.0736 176.626 43.0633 176.562 43.0666H174.724V39.1112C174.727 39.0442 174.717 38.9773 174.695 38.9144C174.672 38.8515 174.638 38.794 174.593 38.7455C174.548 38.6969 174.494 38.6583 174.435 38.6319C174.375 38.6055 174.311 38.592 174.247 38.592H172.815C172.748 38.592 172.683 38.6056 172.622 38.632C172.561 38.6584 172.505 38.6971 172.459 38.7458C172.412 38.7946 172.375 38.8524 172.35 38.9159C172.325 38.9795 172.313 39.0475 172.314 39.1161V43.0716H170.514C170.387 43.0716 170.266 43.1237 170.177 43.2164C170.087 43.3091 170.037 43.4349 170.037 43.566V44.6439C170.033 44.7109 170.043 44.7778 170.066 44.8407C170.089 44.9036 170.123 44.961 170.168 45.0096C170.212 45.0582 170.266 45.0968 170.326 45.1232C170.385 45.1496 170.449 45.1631 170.514 45.163H172.208V52.1691C172.208 54.5968 172.356 55.5609 172.839 56.4361C173.469 57.5535 174.614 58.0529 176.476 58.0529C177 58.0577 177.524 58.0147 178.041 57.9243C178.158 57.9097 178.265 57.8513 178.342 57.7601C178.42 57.6689 178.462 57.5513 178.461 57.4299V56.3075Z" fill="black"/>
<path d="M182.518 39.6726C183.214 39.6726 183.778 39.0882 183.778 38.3673C183.778 37.6464 183.214 37.062 182.518 37.062C181.822 37.062 181.258 37.6464 181.258 38.3673C181.258 39.0882 181.822 39.6726 182.518 39.6726Z" fill="black"/>
<path d="M135.34 39.7392C136.07 39.7392 136.662 39.126 136.662 38.3696C136.662 37.6132 136.07 37 135.34 37C134.61 37 134.018 37.6132 134.018 38.3696C134.018 39.126 134.61 39.7392 135.34 39.7392Z" fill="black"/>
</svg>
