<svg width="290" height="96" viewBox="0 0 290 96" fill="none" xmlns="http://www.w3.org/2000/svg">
<path d="M71.5103 42.7402C71.5103 40.3008 70.2867 38.2848 68 36.5913H73.3156C75.1811 38.0428 76.3244 40.2605 76.3244 42.7402C76.3244 45.2199 75.1811 47.4375 73.3156 48.889C75.0407 49.6148 76.0236 51.3889 76.0236 53.929V58.7676H71.2094V53.929C71.2094 51.5099 70.0661 49.8165 68 48.889C70.2867 47.1956 71.5103 45.1796 71.5103 42.7402ZM81.9409 42.7402C81.9409 40.3008 80.7174 38.2848 78.4306 36.5913H83.7462C85.6117 38.0428 86.7551 40.2605 86.7551 42.7402C86.7551 45.2199 85.6117 47.4375 83.7462 48.889C85.4713 49.6148 86.4542 51.3889 86.4542 53.929V58.7676H81.64V53.929C81.64 51.5099 80.4967 49.8165 78.4306 48.889C80.7174 47.1956 81.9409 45.1796 81.9409 42.7402ZM92.3736 42.7402C92.3736 40.3008 91.15 38.2848 88.8633 36.5913H94.1788C96.0444 38.0428 97.1877 40.2605 97.1877 42.7402C97.1877 45.2199 96.0444 47.4375 94.1788 48.889C95.9039 49.6148 96.8868 51.3889 96.8868 53.929V58.7676H92.0728V53.929C92.0728 51.5099 90.9293 49.8165 88.8633 48.889C91.15 47.1956 92.3736 45.1796 92.3736 42.7402Z" fill="black"/>
<path d="M111.852 54.7382H108.201V40.624H117.168C121.48 40.624 123.607 42.2368 123.607 44.8778C123.607 46.6721 122.563 48.0228 120.618 48.7083C122.624 49.0107 123.526 50.0792 123.526 51.9944V54.7361H119.835V52.1557C119.835 50.5428 119.033 49.8977 116.927 49.8977H111.852V54.7382ZM116.967 42.6804H111.852V47.8414H116.927C118.772 47.8414 119.916 46.8132 119.916 45.2004C119.916 43.6077 118.852 42.6804 116.967 42.6804Z" fill="black"/>
<path d="M129.942 40.624H126.291V54.7382H129.942V40.624Z" fill="black"/>
<path d="M141.136 50.1397H136.683V54.7361H133.032V40.624H141.216C145.529 40.624 147.796 42.4384 147.796 45.3415C147.796 48.3454 145.489 50.1397 141.136 50.1397ZM141.056 42.6804H136.683V48.0833H141.016C142.901 48.0833 144.065 47.1156 144.065 45.3617C144.065 43.6481 142.901 42.6804 141.056 42.6804Z" fill="black"/>
<path d="M158.064 50.1397H153.611V54.7361H149.96V40.624H158.144C162.457 40.624 164.723 42.4384 164.723 45.3415C164.723 48.3454 162.417 50.1397 158.064 50.1397ZM157.984 42.6804H153.611V48.0833H157.943C159.829 48.0833 160.992 47.1156 160.992 45.3617C160.992 43.6481 159.829 42.6804 157.984 42.6804Z" fill="black"/>
<path d="M170.542 40.624V52.6395H179.649V54.7382H166.892V40.624H170.542Z" fill="black"/>
<path d="M185.583 40.624H181.933V54.7382H185.583V40.624Z" fill="black"/>
<path d="M191.081 45.3415V54.7382H188.674V40.624H191.404L201.353 50.0187V40.624H203.76V54.7382H201.032L191.081 45.3415Z" fill="black"/>
<path d="M215.674 42.2751C212.202 42.2751 209.936 44.4927 209.936 47.799C209.936 51.0649 212.102 53.081 215.472 53.081H215.713C216.857 53.081 218.14 52.839 219.324 52.456V48.6457H213.427V46.6297H222.894V53.2624C220.929 54.2905 217.959 55.097 215.553 55.097H215.232C209.695 55.097 206.125 52.1535 206.125 47.8796C206.125 43.6459 209.796 40.259 215.432 40.259H215.753C218.101 40.259 220.788 41.005 222.774 42.1743L221.73 43.8879C219.946 42.9 217.819 42.2751 215.914 42.2751H215.674Z" fill="black"/>
</svg>
