<svg width="290" height="96" viewBox="0 0 290 96" fill="none" xmlns="http://www.w3.org/2000/svg">
<path fill-rule="evenodd" clip-rule="evenodd" d="M147.422 55.2714C150.082 55.2714 151.65 54.1161 152.602 52.8481L150.67 51.0165C149.914 52.0873 148.878 52.6508 147.562 52.6508C145.126 52.6508 143.474 50.7629 143.474 48.1142C143.474 45.4654 145.126 43.6057 147.562 43.6057C148.878 43.6057 149.914 44.1129 150.67 45.1837L152.602 43.4085C151.65 42.1123 150.082 40.9851 147.422 40.9851C143.334 40.9851 140.45 44.0002 140.45 48.1142C140.45 52.2282 143.334 55.2714 147.422 55.2714ZM157.757 54.9332V45.6627C158.345 44.6765 159.997 43.8311 161.257 43.8311C161.621 43.8311 161.9 43.8593 162.152 43.9157V40.9851C160.417 40.9851 158.793 41.9996 157.757 43.2957V41.3233H154.817V54.9332H157.757ZM165.627 39.6608C166.635 39.6608 167.447 38.8437 167.447 37.8292C167.447 36.8148 166.635 35.9977 165.627 35.9977C164.619 35.9977 163.807 36.8148 163.807 37.8292C163.807 38.8437 164.619 39.6608 165.627 39.6608ZM167.084 54.9334V41.3234H164.144V54.9334H167.084ZM175.15 55.2714C178.789 55.2714 180.777 53.4398 180.777 51.0165C180.777 45.6063 172.602 47.4097 172.602 45.0146C172.602 44.0565 173.554 43.3239 175.094 43.3239C176.802 43.3239 178.286 44.0565 179.097 44.9582L180.329 42.8731C179.125 41.8023 177.39 40.9851 175.094 40.9851C171.678 40.9851 169.774 42.8731 169.774 45.0991C169.774 50.3402 177.95 48.4241 177.95 51.101C177.95 52.1718 177.026 52.9044 175.262 52.9044C173.526 52.9044 171.65 52.0027 170.698 51.0165L169.354 53.1299C170.754 54.5106 172.826 55.2714 175.15 55.2714ZM190.608 55.2714C188.9 55.2714 187.388 54.4824 186.268 53.0453V60.118H183.329V41.3233H186.268V43.183C187.276 41.8305 188.844 40.9851 190.608 40.9851C194.108 40.9851 196.6 43.6339 196.6 48.1142C196.6 52.5945 194.108 55.2714 190.608 55.2714ZM189.74 52.6508C192.064 52.6508 193.576 50.7629 193.576 48.1142C193.576 45.4655 192.064 43.6057 189.74 43.6057C188.368 43.6057 186.94 44.3947 186.268 45.4091V50.7911C186.912 51.8055 188.368 52.6508 189.74 52.6508Z" fill="black"/>
<path fill-rule="evenodd" clip-rule="evenodd" d="M127.261 34.1446L94.1083 37.8275L95.9593 58.1161L107.768 56.8042L113.315 62.7308L117.639 55.7077L129.112 54.4331L127.261 34.1446Z" fill="black"/>
</svg>
