<svg width="290" height="96" viewBox="0 0 290 96" fill="none" xmlns="http://www.w3.org/2000/svg">
<path d="M120.641 41.8765V44.0063H116.382V57.048H114.255V44.0063H109.995V41.8765H120.641Z" fill="black"/>
<path d="M131.921 49.662V57.048H129.794V49.662C129.798 49.1315 129.589 48.6216 129.215 48.2458C128.84 47.8701 128.331 47.6598 127.8 47.6618H127.003C125.902 47.6665 125.011 48.5605 125.01 49.662V57.048H122.884V41.8765H125.01V46.4458C125.719 45.8543 126.613 45.5321 127.536 45.5362H127.801C128.895 45.5351 129.945 45.9696 130.718 46.7438C131.491 47.518 131.924 48.5681 131.921 49.662" fill="black"/>
<path fill-rule="evenodd" clip-rule="evenodd" d="M138.5 57.2473H139.296C141.572 57.2432 143.416 55.3975 143.417 53.1215V49.6621C143.416 47.386 141.572 45.5404 139.296 45.5363H138.5C136.224 45.5404 134.381 47.386 134.38 49.6621V53.1215C134.381 55.3975 136.224 57.2432 138.5 57.2473ZM136.507 49.6621C136.508 48.5606 137.399 47.6674 138.501 47.6651H139.297C140.398 47.6674 141.29 48.5606 141.291 49.6621V53.1215C141.29 54.2229 140.398 55.1161 139.297 55.1185H138.501C137.399 55.1161 136.508 54.2229 136.507 53.1215V49.6621Z" fill="black"/>
<path d="M148.033 45.7355V53.1215C148.03 53.6513 148.239 54.1602 148.613 54.5352C148.987 54.9103 149.496 55.1202 150.026 55.1185H150.823C151.353 55.1205 151.861 54.9107 152.236 54.5356C152.61 54.1606 152.819 53.6515 152.817 53.1215V45.7355H154.943V53.1215C154.946 54.2155 154.513 55.2656 153.74 56.0398C152.967 56.8139 151.918 57.2485 150.824 57.2473H150.026C148.932 57.2485 147.882 56.8139 147.109 56.0398C146.336 55.2656 145.903 54.2155 145.906 53.1215V45.7355H148.033Z" fill="black"/>
<path fill-rule="evenodd" clip-rule="evenodd" d="M161.404 61.1074H162.246C163.336 61.1127 164.383 60.6791 165.15 59.9042C165.92 59.128 166.349 58.0777 166.344 56.9848V45.7355H164.217V46.4233C163.501 45.8485 162.61 45.5355 161.692 45.5362H161.426C159.15 45.5403 157.307 47.3861 157.307 49.662V52.4347C157.307 54.7106 159.15 56.5564 161.426 56.5605H161.692C162.614 56.5632 163.508 56.2412 164.217 55.6509V56.9815C164.222 58.0765 163.341 58.9692 162.246 58.9775H161.398C160.462 58.9681 159.655 58.316 159.449 57.4026L157.414 58.0015C157.87 59.8316 159.517 61.1137 161.404 61.1074ZM159.434 49.662C159.434 48.5608 160.325 47.6674 161.426 47.665H162.223C163.325 47.6674 164.217 48.5606 164.217 49.662V52.4347C164.215 53.5349 163.324 54.4262 162.223 54.4285H161.426C160.332 54.413 159.449 53.5292 159.434 52.4347V49.662Z" fill="black"/>
<path d="M178.136 49.662V57.048H176.011V49.662C176.015 49.1315 175.806 48.6216 175.431 48.2458C175.057 47.8701 174.548 47.6598 174.017 47.6618H173.22C172.118 47.6659 171.227 48.5601 171.226 49.662V57.048H169.101V41.8765H171.226V46.4458C171.934 45.8543 172.829 45.5321 173.751 45.5362H174.017C175.111 45.5351 176.16 45.9696 176.933 46.7438C177.706 47.518 178.139 48.5681 178.136 49.662" fill="black"/>
<path d="M190.66 53.5211C190.858 54.4514 191.68 55.1168 192.631 55.1185H194.117C195.214 55.1069 196.1 54.2197 196.111 53.1226C196.099 51.9766 195.316 50.9826 194.205 50.7034L192.256 49.9717C190.445 49.2625 188.934 48.0647 188.934 45.802C188.931 44.7078 189.364 43.6575 190.137 42.8833C190.91 42.1091 191.96 41.6747 193.054 41.6762H194.094C195.976 41.6829 197.615 42.9603 198.081 44.7831L196.016 45.3809C195.835 44.4609 195.026 43.7997 194.088 43.806H193.054C192.524 43.804 192.016 44.0137 191.641 44.3885C191.267 44.7633 191.058 45.2722 191.06 45.802C191.06 46.6666 191.371 47.3329 193.076 47.9983L195.024 48.7482C196.926 49.3594 198.221 51.1209 198.238 53.1183C198.237 55.3937 196.394 57.2388 194.119 57.2441H192.633C190.741 57.2365 189.094 55.9524 188.624 54.12L190.66 53.5211Z" fill="black"/>
<path fill-rule="evenodd" clip-rule="evenodd" d="M200.578 60.908H202.704L202.705 60.9059V56.3376C203.414 56.9279 204.308 57.2499 205.23 57.2472H205.495C207.771 57.2431 209.614 55.3974 209.615 53.1214V49.662C209.614 47.3859 207.771 45.5403 205.495 45.5362H205.23C204.307 45.5332 203.413 45.8553 202.704 46.4457V45.7354H200.578V60.908ZM202.705 49.662C202.718 48.5662 203.602 47.6806 204.698 47.665H205.495C206.596 47.6673 207.488 48.5607 207.488 49.662V53.1214C207.488 54.2226 206.596 55.1161 205.495 55.1184H204.698C203.597 55.1161 202.705 54.2226 202.705 53.1214V49.662Z" fill="black"/>
<path fill-rule="evenodd" clip-rule="evenodd" d="M216.063 57.2473H216.86C219.136 57.2432 220.979 55.3975 220.98 53.1215V49.6621C220.979 47.386 219.136 45.5404 216.86 45.5363H216.063C213.787 45.5404 211.944 47.3862 211.943 49.6621V53.1215C211.944 55.3974 213.787 57.2432 216.063 57.2473ZM214.071 49.6621C214.071 48.5608 214.962 47.6674 216.063 47.6651H216.86C217.962 47.6674 218.854 48.5606 218.854 49.6621V53.1215C218.854 54.2229 217.962 55.1161 216.86 55.1185H216.063C214.962 55.1161 214.071 54.2227 214.071 53.1215V49.6621Z" fill="black"/>
<path d="M185.203 57.2451C183.413 57.2434 181.963 55.7911 181.964 54.0011V47.8643H179.985V45.7355H181.963V42.6746H184.09V45.7355H186.607V47.8643H184.09V54.0032C184.089 54.2986 184.207 54.582 184.415 54.791C184.624 55 184.907 55.1174 185.203 55.1174" fill="black"/>
<path d="M120.641 41.8765V44.0063H116.382V57.048H114.255V44.0063H109.995V41.8765H120.641Z" fill="black"/>
<path d="M84.6406 60.9563C84.6442 58.617 86.5428 56.7232 88.8821 56.7255C91.2215 56.7279 93.1163 58.6256 93.1151 60.9649C93.1139 63.3042 91.2172 65.2 88.8779 65.2C87.7532 65.1991 86.675 64.7516 85.8804 63.9557C85.0857 63.1599 84.6398 62.081 84.6406 60.9563" fill="black"/>
<path d="M80.3555 65.0543H82.4746V41.7136H80.3555V65.0543Z" fill="black"/>
<path d="M76.0703 65.0543H78.1895V41.7136H76.0703V65.0543Z" fill="black"/>
<path d="M71.7852 65.0543H73.9043V41.7136H71.7852V65.0543Z" fill="black"/>
<path d="M60 41.6932H93.3708V39.5709H60V41.6932Z" fill="black"/>
<path d="M60 37.4068H93.3708V35.2855H60V37.4068Z" fill="black"/>
<path d="M60 33.1213H93.3708V31H60V33.1213Z" fill="black"/>
<path d="M84.6406 60.9563C84.6442 58.617 86.5428 56.7232 88.8821 56.7255C91.2215 56.7279 93.1163 58.6256 93.1151 60.9649C93.1139 63.3042 91.2172 65.2 88.8779 65.2C87.7532 65.1991 86.675 64.7516 85.8804 63.9557C85.0857 63.1599 84.6398 62.081 84.6406 60.9563" fill="black"/>
<path d="M80.3555 65.0543H82.4746V41.7136H80.3555V65.0543Z" fill="black"/>
<path d="M76.0703 65.0543H78.1895V41.7136H76.0703V65.0543Z" fill="black"/>
<path d="M71.7852 65.0543H73.9043V41.7136H71.7852V65.0543Z" fill="black"/>
<path d="M60 41.6932H93.3708V39.5709H60V41.6932Z" fill="black"/>
<path d="M60 37.4068H93.3708V35.2855H60V37.4068Z" fill="black"/>
<path d="M60 33.1213H93.3708V31H60V33.1213Z" fill="black"/>
<path d="M131.921 49.662V57.048H129.794V49.662C129.798 49.1315 129.589 48.6216 129.215 48.2458C128.84 47.8701 128.331 47.6598 127.8 47.6618H127.003C125.902 47.6665 125.011 48.5605 125.01 49.662V57.048H122.884V41.8765H125.01V46.4458C125.719 45.8543 126.613 45.5321 127.536 45.5362H127.801C128.895 45.5351 129.945 45.9696 130.718 46.7438C131.491 47.518 131.924 48.5681 131.921 49.662" fill="black"/>
<path fill-rule="evenodd" clip-rule="evenodd" d="M138.5 57.2473H139.296C141.572 57.2432 143.416 55.3975 143.417 53.1215V49.6621C143.416 47.386 141.572 45.5404 139.296 45.5363H138.5C136.224 45.5404 134.381 47.386 134.38 49.6621V53.1215C134.381 55.3975 136.224 57.2432 138.5 57.2473ZM136.507 49.6621C136.508 48.5606 137.399 47.6674 138.501 47.6651H139.297C140.398 47.6674 141.29 48.5606 141.291 49.6621V53.1215C141.29 54.2229 140.398 55.1161 139.297 55.1185H138.501C137.399 55.1161 136.508 54.2229 136.507 53.1215V49.6621Z" fill="black"/>
<path d="M148.033 45.7355V53.1215C148.03 53.6513 148.239 54.1602 148.613 54.5352C148.987 54.9103 149.496 55.1202 150.026 55.1185H150.823C151.353 55.1205 151.861 54.9107 152.236 54.5356C152.61 54.1606 152.819 53.6515 152.817 53.1215V45.7355H154.943V53.1215C154.946 54.2155 154.513 55.2656 153.74 56.0398C152.967 56.8139 151.918 57.2485 150.824 57.2473H150.026C148.932 57.2485 147.882 56.8139 147.109 56.0398C146.336 55.2656 145.903 54.2155 145.906 53.1215V45.7355H148.033Z" fill="black"/>
<path fill-rule="evenodd" clip-rule="evenodd" d="M161.404 61.1074H162.246C163.336 61.1127 164.383 60.6791 165.15 59.9042C165.92 59.128 166.349 58.0777 166.344 56.9848V45.7355H164.217V46.4233C163.501 45.8485 162.61 45.5355 161.692 45.5362H161.426C159.15 45.5403 157.307 47.3861 157.307 49.662V52.4347C157.307 54.7106 159.15 56.5564 161.426 56.5605H161.692C162.614 56.5632 163.508 56.2412 164.217 55.6509V56.9815C164.222 58.0765 163.341 58.9692 162.246 58.9775H161.398C160.462 58.9681 159.655 58.316 159.449 57.4026L157.414 58.0015C157.87 59.8316 159.517 61.1137 161.404 61.1074ZM159.434 49.662C159.434 48.5608 160.325 47.6674 161.426 47.665H162.223C163.325 47.6674 164.217 48.5606 164.217 49.662V52.4347C164.215 53.5349 163.324 54.4262 162.223 54.4285H161.426C160.332 54.413 159.449 53.5292 159.434 52.4347V49.662Z" fill="black"/>
<path d="M178.136 49.662V57.048H176.011V49.662C176.015 49.1315 175.806 48.6216 175.431 48.2458C175.057 47.8701 174.548 47.6598 174.017 47.6618H173.22C172.118 47.6659 171.227 48.5601 171.226 49.662V57.048H169.101V41.8765H171.226V46.4458C171.934 45.8543 172.829 45.5321 173.751 45.5362H174.017C175.111 45.5351 176.16 45.9696 176.933 46.7438C177.706 47.518 178.139 48.5681 178.136 49.662" fill="black"/>
<path d="M190.66 53.5211C190.858 54.4514 191.68 55.1168 192.631 55.1185H194.117C195.214 55.1069 196.1 54.2197 196.111 53.1226C196.099 51.9766 195.316 50.9826 194.205 50.7034L192.256 49.9717C190.445 49.2625 188.934 48.0647 188.934 45.802C188.931 44.7078 189.364 43.6575 190.137 42.8833C190.91 42.1091 191.96 41.6747 193.054 41.6762H194.094C195.976 41.6829 197.615 42.9603 198.081 44.7831L196.016 45.3809C195.835 44.4609 195.026 43.7997 194.088 43.806H193.054C192.524 43.804 192.016 44.0137 191.641 44.3885C191.267 44.7633 191.058 45.2722 191.06 45.802C191.06 46.6666 191.371 47.3329 193.076 47.9983L195.024 48.7482C196.926 49.3594 198.221 51.1209 198.238 53.1183C198.237 55.3937 196.394 57.2388 194.119 57.2441H192.633C190.741 57.2365 189.094 55.9524 188.624 54.12L190.66 53.5211Z" fill="black"/>
<path fill-rule="evenodd" clip-rule="evenodd" d="M200.578 60.908H202.704L202.705 60.9059V56.3376C203.414 56.9279 204.308 57.2499 205.23 57.2472H205.495C207.771 57.2431 209.614 55.3974 209.615 53.1214V49.662C209.614 47.3859 207.771 45.5403 205.495 45.5362H205.23C204.307 45.5332 203.413 45.8553 202.704 46.4457V45.7354H200.578V60.908ZM202.705 49.662C202.718 48.5662 203.602 47.6806 204.698 47.665H205.495C206.596 47.6673 207.488 48.5607 207.488 49.662V53.1214C207.488 54.2226 206.596 55.1161 205.495 55.1184H204.698C203.597 55.1161 202.705 54.2226 202.705 53.1214V49.662Z" fill="black"/>
<path fill-rule="evenodd" clip-rule="evenodd" d="M216.063 57.2473H216.86C219.136 57.2432 220.979 55.3975 220.98 53.1215V49.6621C220.979 47.386 219.136 45.5404 216.86 45.5363H216.063C213.787 45.5404 211.944 47.3862 211.943 49.6621V53.1215C211.944 55.3974 213.787 57.2432 216.063 57.2473ZM214.071 49.6621C214.071 48.5608 214.962 47.6674 216.063 47.6651H216.86C217.962 47.6674 218.854 48.5606 218.854 49.6621V53.1215C218.854 54.2229 217.962 55.1161 216.86 55.1185H216.063C214.962 55.1161 214.071 54.2227 214.071 53.1215V49.6621Z" fill="black"/>
<path d="M186.606 47.8654V45.7355H184.089V42.6746H181.962V45.7355H179.984V47.8654H181.962V54.0043C181.963 55.7935 183.413 57.244 185.202 57.2451H186.606V55.1185H185.202C184.906 55.1185 184.623 55.0011 184.414 54.7921C184.206 54.5831 184.088 54.2997 184.089 54.0043V47.8654H186.606Z" fill="black"/>
<path d="M229.211 47.8654V45.7355H226.693V42.6746H224.567V45.7355H222.589V47.8654H224.567V54.0043C224.567 55.7935 226.017 57.244 227.806 57.2451H229.211V55.1185H227.806C227.511 55.1185 227.228 55.0011 227.019 54.7921C226.81 54.5831 226.693 54.2997 226.693 54.0043V47.8654H229.211Z" fill="black"/>
</svg>
